<?xml version="1.0" standalone="no"?> <!DOCTYPE svg PUBLIC "-//W3C//DTD SVG 1.0//EN" "http://www.w3.org/TR/2001/REC-SVG-20010904/DTD/svg10.dtd" > <svg xmlns="http://www.w3.org/2000/svg" width="100%" height="100%">
<defs >
<font id="helveticaneueltstd-lt" horiz-adv-x="510" ><font-face
    font-family="HelveticaNeueLT Std Lt"
    units-per-em="1000"
    panose-1="2 11 4 3 2 2 2 2 2 4"
    ascent="714"
    descent="-286"
    alphabetic="0" />
<missing-glyph horiz-adv-x="500" d="M0 0V700H500V0H0ZM250 395L420 650H80L250 395ZM280 350L450 95V605L280 350ZM80 50H420L250 305L80 50ZM50 605V95L220 350L50 605Z" />
<glyph unicode=" " glyph-name="space" horiz-adv-x="278" />
<glyph unicode="!" glyph-name="exclam" horiz-adv-x="241" d="M102 178L87 501V714H155V501L140 178H102ZM163 0H79V106H163V0Z" />
<glyph unicode="&quot;" glyph-name="quotedbl" horiz-adv-x="370" d="M87 471V714H150V471H87ZM220 471V714H283V471H220Z" />
<glyph unicode="#" glyph-name="numbersign" horiz-adv-x="556" d="M497 268V223H386L355 0H305L336 223H195L164 0H114L145 223H35V268H151L173 424H63V469H179L210 691H260L229 469H370L401 691H451L420 469H525V424H414L392 268H497ZM364 424H223L201 268H342L364
424Z" />
<glyph unicode="$" glyph-name="dollar" horiz-adv-x="556" d="M296 326V38Q366 38 415 74T464 184Q464 218 450 243T408 284T356 308T296 326ZM257 397V676Q192 676 151 639T110 527Q110 500 119 480T139 447T173 424T212 409T257 397ZM29 228H92Q93 57 257 38V334Q208
345 176 357T111 390T63 448T47 534Q47 622 107 675T257 729V807H296V729Q386 729 448 669T508 512H445Q444 586 403 631T296 676V388Q346 377 381 365T453 331T508 272T527 185Q527 92 459 38T296 -15V-100H257V-14Q141 -3 88 55T29 228Z" />
<glyph unicode="%" glyph-name="percent" horiz-adv-x="889" d="M285 661T228 661T147 618T122 516Q122 458 146 416T228 373T309 415T334 516Q334 575 310 618ZM147 706T228 706T348 655T387 517T348 380T228 328T108 379T69 517T108 654ZM586 363T667 363T787
312T826 174T787 37T667 -15T547 36T508 174T547 311ZM724 318T667 318T586 275T561 173Q561 115 585 73T667 30T748 72T773 173Q773 232 749 275ZM190 -34L643 725H690L238 -34H190Z" />
<glyph unicode="&amp;" glyph-name="ampersand" horiz-adv-x="611" d="M426 140L248 356Q102 277 102 179Q102 118 148 78T257 38Q354 38 426 140ZM541 0L465 93Q379 -15 255 -15Q160 -15 100 38T39 185Q39 303 214 397Q210 402 195 422T174 449T156 475T140 506T131
535T126 569Q126 633 171 673T284 714T396 674T442 569Q442 509 406 468T302 384L458 196Q479 239 479 316H542Q542 223 500 145L620 0H541ZM325 661T284 661T216 637T189 569Q189 546 205 515T232 471T269 425Q379 493 379 569Q379 612 352 636Z" />
<glyph unicode="&apos;" glyph-name="quotesingle" horiz-adv-x="278" d="M108 471V714H171V471H108Z" />
<glyph unicode="(" glyph-name="parenleft" horiz-adv-x="241" d="M242 -191H192Q121 -74 86 33T51 266Q51 510 192 729H242Q114 525 114 243Q114 136 149 20T242 -191Z" />
<glyph unicode=")" glyph-name="parenright" horiz-adv-x="241" d="M-1 729H49Q120 612 155 505T190 272Q190 28 49 -191H-1Q127 13 127 295Q127 402 92 518T-1 729Z" />
<glyph unicode="*" glyph-name="asterisk" horiz-adv-x="352" d="M142 556L27 595L41 632L156 591V714H195V591L310 632L325 595L207 556L279 458L247 435L174 535L101 435L69 458L142 556Z" />
<glyph unicode="+" glyph-name="plus" horiz-adv-x="600" d="M274 278V503H327V278H552V225H327V0H274V225H49V278H274Z" />
<glyph unicode="," glyph-name="comma" horiz-adv-x="278" d="M97 106H181V-1Q180 -48 158 -86T93 -137V-94Q116 -86 128 -57T139 0H97V106Z" />
<glyph unicode="-" glyph-name="hyphen" horiz-adv-x="370" d="M310 246H60V304H310V246Z" />
<glyph unicode="." glyph-name="period" horiz-adv-x="278" d="M181 0H97V106H181V0Z" />
<glyph unicode="/" glyph-name="slash" horiz-adv-x="333" d="M41 -15H-13L295 729H346L41 -15Z" />
<glyph unicode="0" glyph-name="zero" horiz-adv-x="556" d="M459 653T278 653T97 346Q97 38 278 38T459 346Q459 653 278 653ZM219 706T278 706T381 684T452 627T494 543T516 447T522 346T517 245T495 149T452 65T382 8T278 -15T175 7T104 64T62 148T40 244T34
345T39 446T61 542T104 626T174 683Z" />
<glyph unicode="1" glyph-name="one" horiz-adv-x="556" d="M97 520V565Q128 566 142 567T180 571T215 579T242 594T266 617T282 652T294 700H345V0H282V520H97Z" />
<glyph unicode="2" glyph-name="two" horiz-adv-x="556" d="M497 58V0H36Q37 59 60 107T123 190T203 252T293 314T373 378Q431 438 431 510Q431 576 386 614T274 653Q193 653 154 598T116 458H53Q51 570 108 638T277 706Q372 706 433 655T494 509Q494 429 447
371T318 260Q308 253 273 232T218 195T171 158T129 110T108 58H497Z" />
<glyph unicode="3" glyph-name="three" horiz-adv-x="556" d="M33 223H96Q93 139 140 89T271 38Q344 38 397 79T450 193Q450 264 403 302T282 341H229V394H282Q337 393 380 426T424 521Q424 587 381 620T271 653Q194 653 152 605T112 476H49Q50 577 110 641T270
706Q360 706 423 661T487 528Q487 470 456 428T369 373V371Q437 360 475 314T513 198Q513 99 444 42T272 -15Q160 -15 93 49T33 223Z" />
<glyph unicode="4" glyph-name="four" horiz-adv-x="556" d="M30 174V235L354 700H411V227H516V174H411V0H353V174H30ZM87 227H353V608H351L87 227Z" />
<glyph unicode="5" glyph-name="five" horiz-adv-x="556" d="M36 200H99Q101 128 149 83T271 38Q350 38 398 94T446 229Q446 307 396 359T267 411Q220 411 178 389T111 328H57L125 691H475V633H169L124 401L126 399Q152 429 192 446T274 464Q381 464 445 397T509
222Q509 120 439 53T266 -15Q167 -15 103 43T36 200Z" />
<glyph unicode="6" glyph-name="six" horiz-adv-x="556" d="M290 403Q210 403 163 351T116 218Q116 139 160 89T291 38Q364 38 411 90T459 218Q459 297 414 350T290 403ZM505 523H442Q434 582 395 617T296 653Q238 653 198 623T138 543T111 444T103 340H105Q130
392 181 424T291 456Q395 456 458 391T522 222Q522 120 455 53T285 -15Q156 -15 98 70T40 357Q40 390 43 426T62 515T103 608T176 677T290 706Q383 706 438 660T505 523Z" />
<glyph unicode="7" glyph-name="seven" horiz-adv-x="556" d="M51 633V691H501V633Q235 355 218 0H150Q163 179 228 323T438 633H51Z" />
<glyph unicode="8" glyph-name="eight" horiz-adv-x="556" d="M278 38Q356 38 406 78T456 196Q456 269 404 309T278 348Q202 350 151 310T100 196Q100 120 150 79T278 38ZM490 531Q490 474 460 434T376 377V375Q443 362 481 315T519 196Q519 95 451 40T278 -15T106
40T37 196Q39 265 77 314T179 375V377Q124 394 95 433T65 531Q65 615 128 660T277 706Q363 706 426 661T490 531ZM278 401Q340 399 383 433T427 531Q427 589 386 621T278 653Q216 653 172 621T128 531Q128 465 172 432T278 401Z" />
<glyph unicode="9" glyph-name="nine" horiz-adv-x="556" d="M266 288Q346 288 393 340T440 473Q440 552 396 602T265 653Q192 653 145 601T97 473Q97 394 142 341T266 288ZM51 168H114Q122 109 161 74T260 38Q318 38 358 68T418 148T445 247T453 351H451Q426
299 375 267T265 235Q161 235 98 300T34 469Q34 571 101 638T271 706Q400 706 458 621T516 334Q516 301 513 265T494 176T453 83T380 14T266 -15Q173 -15 118 31T51 168Z" />
<glyph unicode=":" glyph-name="colon" horiz-adv-x="278" d="M181 394H97V500H181V394ZM181 0H97V106H181V0Z" />
<glyph unicode=";" glyph-name="semicolon" horiz-adv-x="278" d="M97 106H181V-1Q180 -48 158 -86T93 -137V-94Q116 -86 128 -57T139 0H97V106ZM181 394H97V500H181V394Z" />
<glyph unicode="&lt;" glyph-name="less" horiz-adv-x="600" d="M554 47V-8L46 226V280L554 514V459L108 253L554 47Z" />
<glyph unicode="=" glyph-name="equal" horiz-adv-x="600" d="M552 378V325H49V378H552ZM552 181V128H49V181H552Z" />
<glyph unicode="&gt;" glyph-name="greater" horiz-adv-x="600" d="M46 47L492 253L46 459V514L554 280V226L46 -8V47Z" />
<glyph unicode="?" glyph-name="question" horiz-adv-x="537" d="M117 494H54Q55 602 114 665T281 729Q367 729 425 679T484 544Q484 492 462 453T397 374Q386 363 369 347T347 324T332 308T319 290T313 273T308 249T306 220T304 179H241Q240 225 245 255T267
314T301 359T356 412Q421 473 421 541Q421 600 380 638T278 676Q199 676 157 626T117 494ZM231 0V106H315V0H231Z" />
<glyph unicode="@" glyph-name="at" horiz-adv-x="800" d="M426 510Q355 510 306 434T256 279Q256 235 279 209T339 182Q383 182 422 223T483 318T505 417Q505 452 480 481T426 510ZM614 544L518 256Q491 173 531 173Q596 173 648 253T700 421Q700 541 618 612T416
684Q278 684 189 589T100 353Q100 216 191 123T418 30Q492 30 562 65T676 163H727Q682 81 598 33T418 -15Q258 -15 153 93T47 360Q47 516 153 622T414 729Q560 729 656 642T753 418Q753 301 681 215T521 128Q494 128 476 145T454 195H452Q390 129 325 129Q265 129
229 171T193 274Q193 344 222 409T306 519T430 563Q505 563 536 479L561 544H614Z" />
<glyph unicode="A" glyph-name="A" horiz-adv-x="630" d="M-7 0L281 714H357L637 0H564L477 222H152L66 0H-7ZM316 646L173 280H454L316 646Z" />
<glyph unicode="B" glyph-name="B" horiz-adv-x="667" d="M140 343V58H374Q562 56 562 205Q562 273 513 308T374 343H140ZM72 0V714H374Q439 714 487 699T569 643T603 539Q603 482 569 437T479 379V377Q548 368 589 321T630 203Q630 178 626 156T607 103T565 52T490
15T374 0H72ZM140 656V401H374Q452 401 493 435T535 522Q535 656 374 656H140Z" />
<glyph unicode="C" glyph-name="C" horiz-adv-x="704" d="M662 498H594Q576 579 516 625T375 671Q307 671 254 644T170 572T122 473T106 357T122 242T169 142T254 70T375 43Q471 43 532 108T604 272H672Q658 140 579 63T375 -15Q267 -15 189 38T75 174T38 357T74
540T189 676T375 729Q482 729 565 667T662 498Z" />
<glyph unicode="D" glyph-name="D" horiz-adv-x="685" d="M140 656V58H285Q439 57 509 127T579 357T509 586T285 656H140ZM72 0V714H319Q647 706 647 357T319 0H72Z" />
<glyph unicode="E" glyph-name="E" horiz-adv-x="593" d="M72 0V714H565V656H140V398H538V340H140V58H570V0H72Z" />
<glyph unicode="F" glyph-name="F" horiz-adv-x="537" d="M72 0V714H525V656H140V398H482V340H140V0H72Z" />
<glyph unicode="G" glyph-name="G" horiz-adv-x="741" d="M682 363V0H633L624 130H622Q588 57 523 21T375 -15Q267 -15 189 38T75 174T38 357T74 540T189 676T375 729Q491 729 572 668T673 492H605Q598 560 535 615T375 671Q307 671 254 644T170 572T122 473T106
357T122 242T169 142T254 70T375 43Q491 43 557 116T622 305H379V363H682Z" />
<glyph unicode="H" glyph-name="H" horiz-adv-x="704" d="M72 0V714H140V404H564V714H632V0H564V346H140V0H72Z" />
<glyph unicode="I" glyph-name="I" horiz-adv-x="222" d="M77 0V714H145V0H77Z" />
<glyph unicode="J" glyph-name="J" horiz-adv-x="500" d="M360 228V714H428V199Q428 88 381 37T220 -15Q19 -15 21 229H89Q92 151 102 121Q130 43 226 43Q303 43 331 85T360 228Z" />
<glyph unicode="K" glyph-name="K" horiz-adv-x="648" d="M72 0V714H140V330L555 714H647L328 419L662 0H574L277 372L140 245V0H72Z" />
<glyph unicode="L" glyph-name="L" horiz-adv-x="537" d="M72 0V714H140V58H540V0H72Z" />
<glyph unicode="M" glyph-name="M" horiz-adv-x="833" d="M70 0V714H170L417 88L663 714H763V0H695V617H693L449 0H385L140 617H138V0H70Z" />
<glyph unicode="N" glyph-name="N" horiz-adv-x="704" d="M71 0V714H147L563 110H565V714H633V0H557L141 604H139V0H71Z" />
<glyph unicode="O" glyph-name="O" horiz-adv-x="741" d="M34 257T34 357T70 540T185 676T371 729Q452 729 517 699T623 616T685 498T707 357T686 217T624 98T518 16T371 -15Q263 -15 185 38T71 174ZM102 418T102 357T118 242T165 142T250 70T371 43T492 70T576
142T623 241T639 357T623 472T576 572T492 644T371 671T250 644T166 572T118 473Z" />
<glyph unicode="P" glyph-name="P" horiz-adv-x="630" d="M72 0V714H389Q486 714 543 660T601 510T544 360T389 306H140V0H72ZM140 656V364H374Q447 364 490 401T533 510T490 618T374 656H140Z" />
<glyph unicode="Q" glyph-name="Q" horiz-adv-x="741" d="M444 192L548 113Q639 200 639 357Q639 418 623 472T576 572T492 644T371 671T250 644T166 572T118 473T102 357T118 242T165 142T250 70T371 43Q448 43 503 78L409 149L444 192ZM701 -4L667 -46L556 38Q480
-15 371 -15Q263 -15 185 38T71 174T34 357T70 540T185 676T371 729Q452 729 517 699T623 616T685 498T707 357Q707 178 599 74L701 -4Z" />
<glyph unicode="R" glyph-name="R" horiz-adv-x="667" d="M72 0V714H399Q494 714 555 667T616 528Q616 458 580 409T477 346V344Q542 336 570 295T602 183Q602 180 603 150T606 106T611 68T620 27T635 0H560Q555 8 552 18T547 43T544 66T542 91T541 111Q539 139
538 154T533 195T523 236T507 269T482 296T447 312T398 317H140V0H72ZM140 656V375H394Q459 375 503 413T548 514Q548 581 509 618T394 656H140Z" />
<glyph unicode="S" glyph-name="S" horiz-adv-x="630" d="M36 235H104Q100 43 337 43Q378 43 419 56T493 105T526 188Q526 281 379 317L220 356Q146 375 103 413T59 528Q59 558 70 589T106 654T182 708T305 729Q417 729 493 671T569 507H501Q498 585 442 628T306
671Q228 671 178 637T127 529Q127 446 235 420L409 377Q451 366 481 353T539 318T580 264T594 189Q594 169 591 149T571 97T527 42T447 2T321 -15Q187 -15 109 47T36 235Z" />
<glyph unicode="T" glyph-name="T" horiz-adv-x="556" d="M-5 656V714H561V656H312V0H244V656H-5Z" />
<glyph unicode="U" glyph-name="U" horiz-adv-x="685" d="M65 257V714H133V272Q132 152 186 98T342 43Q445 43 499 97T552 272V714H620V257Q620 137 552 61T342 -15Q202 -15 134 61T65 257Z" />
<glyph unicode="V" glyph-name="V" horiz-adv-x="593" d="M258 0L-7 714H66L298 75H300L530 714H602L337 0H258Z" />
<glyph unicode="W" glyph-name="W" horiz-adv-x="907" d="M198 0L0 714H73L235 89H237L411 714H496L671 89H673L836 714H904L707 0H635L454 639H452L272 0H198Z" />
<glyph unicode="X" glyph-name="X" horiz-adv-x="574" d="M245 368L3 714H83L285 415L494 714H570L326 366L584 0H502L285 315L65 0H-12L245 368Z" />
<glyph unicode="Y" glyph-name="Y" horiz-adv-x="611" d="M271 0V294L-10 714H71L306 352L540 714H621L339 294V0H271Z" />
<glyph unicode="Z" glyph-name="Z" horiz-adv-x="574" d="M37 656V714H551V654L81 58H561V0H5V60L475 656H37Z" />
<glyph unicode="[" glyph-name="bracketleft" horiz-adv-x="241" d="M237 -191H76V729H237V676H139V-138H237V-191Z" />
<glyph unicode="\" glyph-name="backslash" horiz-adv-x="333" d="M346 -15H292L-13 729H38L346 -15Z" />
<glyph unicode="]" glyph-name="bracketright" horiz-adv-x="241" d="M4 729H165V-191H4V-138H102V676H4V729Z" />
<glyph unicode="^" glyph-name="asciicircum" horiz-adv-x="600" d="M102 238H44L274 691H326L556 238H499L299 628L102 238Z" />
<glyph unicode="_" glyph-name="underscore" horiz-adv-x="500" d="M500 -125H0V-75H500V-125Z" />
<glyph unicode="`" glyph-name="grave" horiz-adv-x="185" d="M101 588L-31 729H47L152 588H101Z" />
<glyph unicode="a" glyph-name="a" horiz-adv-x="519" d="M390 200V282H388Q380 267 335 259Q317 256 281 251T225 242T176 231T133 212T107 183T95 140Q95 95 129 67T210 38Q285 38 338 82T390 200ZM117 358H54Q58 445 114 488T263 531Q453 531 453 365V91Q453
53 490 53Q500 53 510 57V4Q491 0 469 0Q424 0 410 22T395 90H393Q357 35 316 10T205 -15Q129 -15 81 23T32 136Q32 175 46 203T82 247T139 274T205 289T281 299Q300 301 309 302Q354 307 372 320T390 372Q390 478 255 478Q193 478 156 448T117 358Z" />
<glyph unicode="b" glyph-name="b" horiz-adv-x="574" d="M473 201T473 258T457 363T401 444T304 478Q211 478 167 414T123 258T167 103T304 38Q361 38 400 71T456 153ZM60 0V714H123V418H125Q145 472 194 501T304 531Q416 531 476 453T536 258T476 63T304 -15Q241
-15 192 15T120 98H118V0H60Z" />
<glyph unicode="c" glyph-name="c" horiz-adv-x="519" d="M487 354H424Q397 478 278 478Q192 478 145 413T97 258T144 104T278 38Q337 38 379 79T428 185H491Q478 92 421 39T278 -15Q164 -15 99 63T34 258T99 452T278 531Q363 531 420 486T487 354Z" />
<glyph unicode="d" glyph-name="d" horiz-adv-x="574" d="M101 315T101 258T117 153T173 72T270 38Q363 38 407 102T451 258T407 413T270 478Q213 478 174 445T118 363ZM514 714V0H456V98H454Q434 49 381 17T270 -15Q158 -15 98 63T38 258T98 453T270 531Q330
531 379 502T449 418H451V714H514Z" />
<glyph unicode="e" glyph-name="e" horiz-adv-x="519" d="M494 241H97Q98 161 141 100T267 38Q395 38 429 170H492Q449 -15 267 -15Q151 -15 93 62T34 258Q34 330 57 389T134 490T267 531Q327 531 373 507T445 440T483 348T494 241ZM97 294H431Q429 370 385 424T267
478T150 425T97 294Z" />
<glyph unicode="f" glyph-name="f" horiz-adv-x="259" d="M259 516V463H157V0H94V463H6V516H94V563Q93 636 120 675T219 714Q245 714 272 710V656Q244 661 226 661Q206 661 192 655T172 643T162 620T158 594T157 561V516H259Z" />
<glyph unicode="g" glyph-name="g" horiz-adv-x="556" d="M267 59Q345 59 389 119T433 264Q433 304 424 340T395 408T343 459T267 478Q183 478 140 416T97 264Q97 179 141 119T267 59ZM496 516V42Q495 -80 442 -143T267 -206Q182 -206 121 -167T53 -50H116Q126
-103 167 -128T267 -153Q433 -153 433 42V112H431Q409 64 366 35T267 6Q149 6 92 79T34 271Q34 382 96 456T267 531Q322 531 367 501T431 427H433V516H496Z" />
<glyph unicode="h" glyph-name="h" horiz-adv-x="537" d="M59 0V714H122V427H124Q141 473 187 502T289 531Q393 531 435 481T478 332V0H415V322Q415 478 284 478Q211 478 168 429T122 301V0H59Z" />
<glyph unicode="i" glyph-name="i" horiz-adv-x="185" d="M61 0V516H124V0H61ZM61 613V714H124V613H61Z" />
<glyph unicode="j" glyph-name="j" horiz-adv-x="185" d="M61 -63V516H124V-48Q124 -191 14 -191Q6 -191 -8 -190T-30 -189V-137Q-8 -139 4 -138Q38 -138 49 -119T61 -63ZM61 613V714H124V613H61Z" />
<glyph unicode="k" glyph-name="k" horiz-adv-x="500" d="M60 0V714H123V266L409 516H493L273 325L508 0H429L225 281L123 196V0H60Z" />
<glyph unicode="l" glyph-name="l" horiz-adv-x="185" d="M61 0V714H124V0H61Z" />
<glyph unicode="m" glyph-name="m" horiz-adv-x="833" d="M60 0V516H118V429H121Q175 531 290 531Q343 531 383 505T438 430Q460 479 504 505T602 531Q773 531 773 350V0H710V347Q710 413 682 445T588 478Q448 478 448 292V0H385V350Q386 407 360 442T277 478Q199
478 162 426T123 288V0H60Z" />
<glyph unicode="n" glyph-name="n" horiz-adv-x="537" d="M59 0V516H122V427H124Q141 473 187 502T289 531Q393 531 435 481T478 332V0H415V322Q415 478 284 478Q211 478 168 429T122 301V0H59Z" />
<glyph unicode="o" glyph-name="o" horiz-adv-x="556" d="M164 531T278 531T457 453T522 258T457 64T278 -15T99 63T34 258T99 452ZM364 478T278 478T145 413T97 258T144 104T278 38T411 103T459 258T412 412Z" />
<glyph unicode="p" glyph-name="p" horiz-adv-x="574" d="M473 201T473 258T457 363T401 444T304 478Q207 478 165 417T123 258Q123 167 167 103T304 38Q361 38 400 71T456 153ZM60 -191V516H118V418H120Q142 470 191 500T304 531Q416 531 476 453T536 258T476
63T304 -15Q244 -15 195 14T125 98H123V-191H60Z" />
<glyph unicode="q" glyph-name="q" horiz-adv-x="574" d="M101 315T101 258T117 153T173 72T270 38Q363 38 407 102T451 258T407 413T270 478Q213 478 174 445T118 363ZM514 516V-191H451V98H449Q429 44 380 15T270 -15Q158 -15 98 63T38 258T98 453T270 531Q328
531 381 499T454 418H456V516H514Z" />
<glyph unicode="r" glyph-name="r" horiz-adv-x="315" d="M60 0V516H118V395H120Q144 458 195 492T315 523V460Q231 464 177 411T123 275V0H60Z" />
<glyph unicode="s" glyph-name="s" horiz-adv-x="481" d="M432 365H369Q367 421 329 449T234 478Q185 478 149 457T112 389Q112 329 219 302L303 283Q365 274 407 238T450 140Q450 63 388 24T243 -15Q150 -15 94 30T31 167H94Q98 105 139 72T246 38Q299 38 343
62T387 136Q387 177 357 197T274 230L193 248Q121 267 85 296T49 386Q49 459 107 495T243 531Q324 531 376 489T432 365Z" />
<glyph unicode="t" glyph-name="t" horiz-adv-x="296" d="M160 671V516H265V463H160V115Q160 81 170 65T211 47Q238 47 265 50V-4Q256 -4 237 -5T209 -6Q146 -6 121 19T97 110V463H7V516H97V671H160Z" />
<glyph unicode="u" glyph-name="u" horiz-adv-x="537" d="M478 516V0H420V93H418Q394 42 346 14T240 -15Q59 -15 59 181V516H122V180Q124 108 155 73T260 38Q336 38 375 98T415 245V516H478Z" />
<glyph unicode="v" glyph-name="v" horiz-adv-x="463" d="M201 0L2 516H72L234 63H236L396 516H461L268 0H201Z" />
<glyph unicode="w" glyph-name="w" horiz-adv-x="741" d="M174 0L8 516H75L207 74H209L335 516H406L532 74H534L666 516H733L567 0H498L371 434H369L243 0H174Z" />
<glyph unicode="x" glyph-name="x" horiz-adv-x="481" d="M1 0L201 268L16 516H95L242 320L386 516H465L279 269L480 0H400L238 217L79 0H1Z" />
<glyph unicode="y" glyph-name="y" horiz-adv-x="463" d="M208 2L2 516H69L239 76L398 516H461L237 -79Q209 -147 184 -169T101 -191Q62 -189 53 -186V-133Q78 -138 96 -138Q116 -138 130 -133T154 -115T170 -91T186 -57L208 2Z" />
<glyph unicode="z" glyph-name="z" horiz-adv-x="463" d="M432 471L91 53H446V0H15V51L352 463H38V516H432V471Z" />
<glyph unicode="{" glyph-name="braceleft" horiz-adv-x="333" d="M293 -191H243Q201 -191 178 -158T155 -66V82Q155 242 83 242V295Q155 295 155 455V604Q155 662 178 695T243 729H293V676H273Q218 676 218 573V432Q218 383 203 344T173 291T148 270V268Q159
262 173 248T202 194T218 106V-35Q218 -138 273 -138H293V-191Z" />
<glyph unicode="|" glyph-name="bar" horiz-adv-x="222" d="M85 -214V786H138V-214H85Z" />
<glyph unicode="}" glyph-name="braceright" horiz-adv-x="333" d="M40 729H90Q132 729 155 696T178 604V456Q178 296 250 296V243Q178 243 178 83V-66Q178 -124 155 -157T90 -191H40V-138H60Q115 -138 115 -35V106Q115 155 130 194T160 247T185 268V270Q174 276
160 290T131 344T115 432V573Q115 676 60 676H40V729Z" />
<glyph unicode="~" glyph-name="asciitilde" horiz-adv-x="600" d="M495 315L531 279Q511 252 498 237T460 208T406 193Q364 193 296 226Q226 258 189 258Q137 258 105 189L69 225Q114 311 194 311Q235 311 309 279Q383 246 407 246Q434 246 453 264T495 315Z" />
</font>
</defs>
</svg>
